<?xml version="1.0" encoding="UTF-8" standalone="no"?>
<!-- Created with Inkscape (http://www.inkscape.org/) -->

<svg
   width="48"
   height="48"
   viewBox="0 0 48 48"
   version="1.1"
   id="svg1"
   inkscape:version="1.4.2 (ebf0e940d0, 2025-05-08)"
   sodipodi:docname="bear.svg"
   xmlns:inkscape="http://www.inkscape.org/namespaces/inkscape"
   xmlns:sodipodi="http://sodipodi.sourceforge.net/DTD/sodipodi-0.dtd"
   xmlns="http://www.w3.org/2000/svg"
   xmlns:svg="http://www.w3.org/2000/svg">
  <sodipodi:namedview
     id="namedview1"
     pagecolor="#ffffff"
     bordercolor="#000000"
     borderopacity="0.25"
     inkscape:showpageshadow="2"
     inkscape:pageopacity="0.0"
     inkscape:pagecheckerboard="0"
     inkscape:deskcolor="#d1d1d1"
     inkscape:document-units="px"
     inkscape:zoom="13.723977"
     inkscape:cx="19.455002"
     inkscape:cy="24.08194"
     inkscape:window-width="1920"
     inkscape:window-height="1012"
     inkscape:window-x="0"
     inkscape:window-y="0"
     inkscape:window-maximized="1"
     inkscape:current-layer="layer1" />
  <defs
     id="defs1" />
  <g
     inkscape:label="Layer 1"
     inkscape:groupmode="layer"
     id="layer1">
    <path
       style="fill:#000000;fill-opacity:0;stroke:#000000;stroke-width:1;stroke-linecap:round;stroke-linejoin:round;stroke-dasharray:none;stroke-opacity:1"
       d="m 7.2883885,18.516855 c 1.122897,-1.08321 2.4838704,-3.706623 4.5146285,-3.917604 2.030758,-0.210981 0.295734,-2.013744 1.230124,-2.105159 2.101578,-0.205607 -0.370022,2.122436 1.594913,2.024447 1.964935,-0.09799 2.700355,-0.204748 3.789706,-0.436226 5.806085,-1.233736 14.564226,-2.823656 17.357521,0.636788 3.576107,4.430223 0.355795,15.630953 -0.494382,16.344569 -0.850177,0.713616 -3.895131,0 -3.895131,0 l -0.03679,-3.480976 0.05992,0.01367 0.0368,3.467311 c 0,0 -2.587345,0.961165 -3.655431,0.05992 -1.068086,-0.90124 0.347321,-3.593612 -0.719101,-4.674158 -1.066422,-1.080546 -6.014233,-1.027543 -7.116105,0.05992 -1.101871,1.087469 0.256377,3.878482 -0.719101,4.734083 -0.975478,0.855601 -2.996255,0.05992 -2.996255,0.05992 l -0.271236,-3.71227 h 0.257567 l 0.01367,3.65235 c 0,0 -2.031532,0.905159 -3.116105,0 C 12.039018,30.338282 13.61255,27.41779 12.16479,25.970032 11.561661,25.366904 7.9614275,24.494679 6.9839135,24.366612 5.6149946,24.187265 4.8337559,24.833756 4.1498128,24.149813 3.2280286,23.228029 2.4081831,20.142087 3.3600199,20.319163 c 0.8382857,0.155952 1.3800178,0.912931 -0.1468181,0.139736 -0.9004283,-0.455981 2.952291,-0.858834 4.0751867,-1.942044 z"
       id="path1"
       sodipodi:nodetypes="zzszsczcccczzzzcccczsssssz" />
    <circle
       style="fill:#000000;fill-opacity:1;stroke:none;stroke-width:1.25926;stroke-linecap:round;stroke-linejoin:round;stroke-dasharray:none;stroke-opacity:1"
       id="path2"
       cx="10.792073"
       cy="18.150307"
       r="0.64148688" />
  </g>
</svg>
